<?xml version="1.0" encoding="UTF-8"?>
<svg version="1.1" xmlns="http://www.w3.org/2000/svg" width="98" height="40">
<path d="M0 0 C32.34 0 64.68 0 98 0 C98 13.2 98 26.4 98 40 C65.66 40 33.32 40 0 40 C0 26.8 0 13.6 0 0 Z " fill="#FDFEFE" transform="translate(0,0)"/>
<path d="M0 0 C0.66 0 1.32 0 2 0 C2.99 1.98 3.98 3.96 5 6 C5.33 4.02 5.66 2.04 6 0 C8.31 0 10.62 0 13 0 C13.33 1.32 13.66 2.64 14 4 C13.67 3.34 13.34 2.68 13 2 C11.68 2 10.36 2 9 2 C9 2.99 9 3.98 9 5 C9.61875 5.0825 10.2375 5.165 10.875 5.25 C13 6 13 6 14.25 8.0625 C14.4975 8.701875 14.745 9.34125 15 10 C15.99 10 16.98 10 18 10 C18 7.36 18 4.72 18 2 C17.01 2 16.02 2 15 2 C15 1.34 15 0.68 15 0 C17.64 0 20.28 0 23 0 C23 0.66 23 1.32 23 2 C22.01 2 21.02 2 20 2 C20.33 5.96 20.66 9.92 21 14 C22.32 14 23.64 14 25 14 C25 13.01 25 12.02 25 11 C25.66 11 26.32 11 27 11 C27 13.97 27 16.94 27 20 C26.34 20 25.68 20 25 20 C25 18.68 25 17.36 25 16 C23.68 16 22.36 16 21 16 C21 17.32 21 18.64 21 20 C20.01 20 19.02 20 18 20 C18 17.36 18 14.72 18 12 C17.01 12 16.02 12 15 12 C15 14.64 15 17.28 15 20 C10.38 20 5.76 20 1 20 C1 19.34 1 18.68 1 18 C-0.65 18 -2.3 18 -4 18 C-4 18.66 -4 19.32 -4 20 C-4.66 20 -5.32 20 -6 20 C-5.56231549 17.37389294 -5.12693161 15.2397597 -3.875 12.875 C-2.66806769 10.84955586 -2.66806769 10.84955586 -4 8 C-3.22265625 5.95703125 -3.22265625 5.95703125 -2.0625 3.8125 C-1.68222656 3.09707031 -1.30195313 2.38164062 -0.91015625 1.64453125 C-0.45962891 0.83048828 -0.45962891 0.83048828 0 0 Z " fill="#DDEEF3" transform="translate(32,15)"/>
<path d="M0 0 C1.91015625 0.23046875 1.91015625 0.23046875 3.91015625 2.23046875 C4.03515625 4.85546875 4.03515625 4.85546875 3.91015625 7.23046875 C4.71453125 7.20984375 5.51890625 7.18921875 6.34765625 7.16796875 C8.91015625 7.23046875 8.91015625 7.23046875 9.91015625 8.23046875 C10.00839562 9.89475926 10.03989256 11.56328806 10.03515625 13.23046875 C10.03902344 14.59171875 10.03902344 14.59171875 10.04296875 15.98046875 C9.91015625 18.23046875 9.91015625 18.23046875 8.91015625 19.23046875 C7.2439851 19.27110707 5.5762753 19.27318975 3.91015625 19.23046875 C3.93078125 20.03484375 3.95140625 20.83921875 3.97265625 21.66796875 C3.91015625 24.23046875 3.91015625 24.23046875 2.91015625 25.23046875 C1.24586574 25.32870812 -0.42266306 25.36020506 -2.08984375 25.35546875 C-3.45109375 25.35933594 -3.45109375 25.35933594 -4.83984375 25.36328125 C-7.08984375 25.23046875 -7.08984375 25.23046875 -8.08984375 24.23046875 C-8.13048207 22.5642976 -8.13256475 20.8965878 -8.08984375 19.23046875 C-8.87359375 19.27171875 -9.65734375 19.31296875 -10.46484375 19.35546875 C-13.08984375 19.23046875 -13.08984375 19.23046875 -15.08984375 17.23046875 C-15.35546875 15.35546875 -15.35546875 15.35546875 -15.33984375 13.23046875 C-15.345 12.52921875 -15.35015625 11.82796875 -15.35546875 11.10546875 C-15.08984375 9.23046875 -15.08984375 9.23046875 -13.08984375 7.23046875 C-10.46484375 7.10546875 -10.46484375 7.10546875 -8.08984375 7.23046875 C-7.02734375 9.04296875 -7.02734375 9.04296875 -6.08984375 11.23046875 C-6.41984375 12.22046875 -6.74984375 13.21046875 -7.08984375 14.23046875 C-7.74984375 14.23046875 -8.40984375 14.23046875 -9.08984375 14.23046875 C-8.75984375 14.56046875 -8.42984375 14.89046875 -8.08984375 15.23046875 C-7.42984375 15.23046875 -6.76984375 15.23046875 -6.08984375 15.23046875 C-5.75984375 13.25046875 -5.42984375 11.27046875 -5.08984375 9.23046875 C-4.42984375 9.56046875 -3.76984375 9.89046875 -3.08984375 10.23046875 C-2.75984375 8.91046875 -2.42984375 7.59046875 -2.08984375 6.23046875 C-3.07984375 6.56046875 -4.06984375 6.89046875 -5.08984375 7.23046875 C-5.74984375 6.90046875 -6.40984375 6.57046875 -7.08984375 6.23046875 C-7.13256475 4.5643497 -7.13048207 2.8966399 -7.08984375 1.23046875 C-5.19495423 -0.66442077 -2.51845229 0.05027763 0 0 Z " fill="#92DAD8" transform="translate(76.08984375,9.76953125)"/>
<path d="M0 0 C5.61 0 11.22 0 17 0 C17 1.32 17 2.64 17 4 C15.35 4.66 13.7 5.32 12 6 C12.99 7.485 12.99 7.485 14 9 C14.45375 8.34 14.9075 7.68 15.375 7 C16.179375 6.01 16.179375 6.01 17 5 C17.66 5 18.32 5 19 5 C19 8.3 19 11.6 19 15 C18.34 15 17.68 15 17 15 C17 15.66 17 16.32 17 17 C15.68 17 14.36 17 13 17 C13 17.66 13 18.32 13 19 C14.32 19 15.64 19 17 19 C17 19.66 17 20.32 17 21 C15.68 21 14.36 21 13 21 C13 21.66 13 22.32 13 23 C14.32 23 15.64 23 17 23 C17 23.66 17 24.32 17 25 C13.7 25 10.4 25 7 25 C7 23.68 7 22.36 7 21 C5.68 21 4.36 21 3 21 C3 22.32 3 23.64 3 25 C2.01 25 1.02 25 0 25 C-0.02698189 23.37509046 -0.04638757 21.75005367 -0.0625 20.125 C-0.07410156 19.22007813 -0.08570313 18.31515625 -0.09765625 17.3828125 C0 15 0 15 1 13 C2.65 13 4.3 13 6 13 C6 12.34 6 11.68 6 11 C4.35 10.67 2.7 10.34 1 10 C1.33 8.02 1.66 6.04 2 4 C1.34 4 0.68 4 0 4 C0 2.68 0 1.36 0 0 Z " fill="#E7F3F6" transform="translate(8,10)"/>
<path d="M0 0 C1.98 0 3.96 0 6 0 C6.33 1.32 6.66 2.64 7 4 C6.67 3.34 6.34 2.68 6 2 C4.68 2 3.36 2 2 2 C2 2.99 2 3.98 2 5 C2.61875 5.0825 3.2375 5.165 3.875 5.25 C6 6 6 6 7.25 8.0625 C7.4975 8.701875 7.745 9.34125 8 10 C8.99 10 9.98 10 11 10 C11 7.36 11 4.72 11 2 C10.01 2 9.02 2 8 2 C8 1.34 8 0.68 8 0 C10.64 0 13.28 0 16 0 C16 0.66 16 1.32 16 2 C15.01 2 14.02 2 13 2 C13.33 5.96 13.66 9.92 14 14 C15.32 14 16.64 14 18 14 C18 13.01 18 12.02 18 11 C18.66 11 19.32 11 20 11 C20 13.97 20 16.94 20 20 C19.34 20 18.68 20 18 20 C18 18.68 18 17.36 18 16 C16.68 16 15.36 16 14 16 C14 17.32 14 18.64 14 20 C13.01 20 12.02 20 11 20 C11 17.36 11 14.72 11 12 C10.01 12 9.02 12 8 12 C8 14.64 8 17.28 8 20 C7.34 20 6.68 20 6 20 C6 17.36 6 14.72 6 12 C4.68 12 3.36 12 2 12 C2 11.34 2 10.68 2 10 C1.34 10 0.68 10 0 10 C0 6.7 0 3.4 0 0 Z " fill="#7DC2D6" transform="translate(39,15)"/>
<path d="M0 0 C1.91015625 0.23046875 1.91015625 0.23046875 3.91015625 2.23046875 C4.03515625 4.85546875 4.03515625 4.85546875 3.91015625 7.23046875 C4.71453125 7.20984375 5.51890625 7.18921875 6.34765625 7.16796875 C8.91015625 7.23046875 8.91015625 7.23046875 9.91015625 8.23046875 C9.98221136 9.91655841 9.99401693 11.60547534 9.97265625 13.29296875 C9.96363281 14.21207031 9.95460938 15.13117187 9.9453125 16.078125 C9.93371094 16.78839844 9.92210938 17.49867187 9.91015625 18.23046875 C7.93015625 18.23046875 5.95015625 18.23046875 3.91015625 18.23046875 C3.91015625 16.25046875 3.91015625 14.27046875 3.91015625 12.23046875 C3.12640625 12.08609375 2.34265625 11.94171875 1.53515625 11.79296875 C-1.08984375 11.23046875 -1.08984375 11.23046875 -3.08984375 10.23046875 C-2.75984375 8.91046875 -2.42984375 7.59046875 -2.08984375 6.23046875 C-3.07984375 6.56046875 -4.06984375 6.89046875 -5.08984375 7.23046875 C-5.74984375 6.90046875 -6.40984375 6.57046875 -7.08984375 6.23046875 C-7.13256475 4.5643497 -7.13048207 2.8966399 -7.08984375 1.23046875 C-5.19495423 -0.66442077 -2.51845229 0.05027763 0 0 Z " fill="#21B9B6" transform="translate(76.08984375,9.76953125)"/>
<path d="M0 0 C5.61 0 11.22 0 17 0 C17 1.32 17 2.64 17 4 C15.35 4.66 13.7 5.32 12 6 C12.99 7.485 12.99 7.485 14 9 C14.45375 8.34 14.9075 7.68 15.375 7 C16.179375 6.01 16.179375 6.01 17 5 C17.66 5 18.32 5 19 5 C19 8.3 19 11.6 19 15 C18.34 15 17.68 15 17 15 C16.67 14.01 16.34 13.02 16 12 C15.01 12.33 14.02 12.66 13 13 C12.67 12.34 12.34 11.68 12 11 C11.34 12.32 10.68 13.64 10 15 C9 14 9 14 8.90234375 11.71484375 C8.91394531 10.79832031 8.92554688 9.88179687 8.9375 8.9375 C8.94652344 8.01839844 8.95554687 7.09929688 8.96484375 6.15234375 C8.97644531 5.44207031 8.98804688 4.73179688 9 4 C8.2575 4 7.515 4 6.75 4 C4.5 4 2.25 4 0 4 C0 2.68 0 1.36 0 0 Z " fill="#B8DEEA" transform="translate(8,10)"/>
<path d="M0 0 C-0.33 0.66 -0.66 1.32 -1 2 C-2.32 1.67 -3.64 1.34 -5 1 C-5 1.66 -5 2.32 -5 3 C-3.35 3.33 -1.7 3.66 0 4 C0 5.32 0 6.64 0 8 C-1.65 8.66 -3.3 9.32 -5 10 C-5 10.99 -5 11.98 -5 13 C-3.68 13 -2.36 13 -1 13 C-1 12.01 -1 11.02 -1 10 C-0.34 10 0.32 10 1 10 C1 12.97 1 15.94 1 19 C0.34 19 -0.32 19 -1 19 C-1 17.68 -1 16.36 -1 15 C-2.32 15 -3.64 15 -5 15 C-5 16.32 -5 17.64 -5 19 C-5.99 19 -6.98 19 -8 19 C-8.02698189 17.37509046 -8.04638757 15.75005367 -8.0625 14.125 C-8.07410156 13.22007813 -8.08570313 12.31515625 -8.09765625 11.3828125 C-8 9 -8 9 -7 7 C-5.35 7 -3.7 7 -2 7 C-2 6.34 -2 5.68 -2 5 C-3.65 4.67 -5.3 4.34 -7 4 C-7 2.68 -7 1.36 -7 0 C-4.3333581 -1.33332095 -2.83319697 -0.67102033 0 0 Z " fill="#61B7D2" transform="translate(16,16)"/>
<path d="M0 0 C2.34058637 2.12780579 3.70700306 4.11562221 5 7 C5.33 5.02 5.66 3.04 6 1 C6.99 1 7.98 1 9 1 C9 3.31 9 5.62 9 8 C10.32 8 11.64 8 13 8 C13 8.66 13 9.32 13 10 C9.7 10 6.4 10 3 10 C3 9.34 3 8.68 3 8 C1.35 8 -0.3 8 -2 8 C-2 8.66 -2 9.32 -2 10 C-2.66 10 -3.32 10 -4 10 C-3.43454163 6.04179141 -2.19097652 3.3340947 0 0 Z " fill="#55B0CC" transform="translate(30,25)"/>
<path d="M0 0 C0.78375 0.04125 1.5675 0.0825 2.375 0.125 C3.4375 1.9375 3.4375 1.9375 4.375 4.125 C4.045 5.115 3.715 6.105 3.375 7.125 C2.715 7.125 2.055 7.125 1.375 7.125 C1.705 8.445 2.035 9.765 2.375 11.125 C0.37545254 11.16754356 -1.62541636 11.16580783 -3.625 11.125 C-5.51988952 9.23011048 -4.80519112 6.55360854 -4.85546875 4.03515625 C-4.45978854 0.75570502 -3.15370959 0.15017665 0 0 Z " fill="#23BBBB" transform="translate(65.625,16.875)"/>
<path d="M0 0 C0.86625 0.7115625 0.86625 0.7115625 1.75 1.4375 C3.92582084 2.9484867 5.42602448 3.54036151 8 4 C8.04254356 5.99954746 8.04080783 8.00041636 8 10 C7 11 7 11 4.1875 11.25 C0.71535734 10.97767509 -0.5675428 10.4324572 -3 8 C-3 7.34 -3 6.68 -3 6 C-2.34 6 -1.68 6 -1 6 C-0.67 4.02 -0.34 2.04 0 0 Z " fill="#23BEBD" transform="translate(71,19)"/>
<path d="M0 0 C0.33 0 0.66 0 1 0 C1 1.65 1 3.3 1 5 C2.65 5 4.3 5 6 5 C5.67 6.32 5.34 7.64 5 9 C6.32 9.66 7.64 10.32 9 11 C8.34 11 7.68 11 7 11 C6.67 11.99 6.34 12.98 6 14 C5.34 13.67 4.68 13.34 4 13 C3.34 13.66 2.68 14.32 2 15 C1.34 14.67 0.68 14.34 0 14 C-0.33 14.66 -0.66 15.32 -1 16 C-1 14.68 -1 13.36 -1 12 C-0.34 12 0.32 12 1 12 C0.67 11.01 0.34 10.02 0 9 C-0.06740865 7.43881572 -0.08514456 5.8749748 -0.0625 4.3125 C-0.05347656 3.50425781 -0.04445313 2.69601563 -0.03515625 1.86328125 C-0.01775391 0.94095703 -0.01775391 0.94095703 0 0 Z " fill="#ACDFE0" transform="translate(68,11)"/>
<path d="M0 0 C1.32 1.32 2.64 2.64 4 4 C4.45375 3.34 4.9075 2.68 5.375 2 C5.91125 1.34 6.4475 0.68 7 0 C7.66 0 8.32 0 9 0 C9 3.3 9 6.6 9 10 C8.34 10 7.68 10 7 10 C6.67 9.01 6.34 8.02 6 7 C5.01 7.33 4.02 7.66 3 8 C2.67 7.34 2.34 6.68 2 6 C1.34 7.32 0.68 8.64 0 10 C0 6.7 0 3.4 0 0 Z " fill="#2097BA" transform="translate(18,15)"/>
<path d="M0 0 C0.66 0 1.32 0 2 0 C5.07692308 5.41538462 5.07692308 5.41538462 4.6875 8.375 C4.460625 8.91125 4.23375 9.4475 4 10 C2.02 9.34 0.04 8.68 -2 8 C-2 8.66 -2 9.32 -2 10 C-2.66 10 -3.32 10 -4 10 C-3.52449439 8.51965236 -3.04448784 7.04074979 -2.5625 5.5625 C-2.29566406 4.73878906 -2.02882813 3.91507813 -1.75390625 3.06640625 C-1 1 -1 1 0 0 Z " fill="#43A4C2" transform="translate(32,15)"/>
<path d="M0 0 C2.97 0 5.94 0 9 0 C9 2.64 9 5.28 9 8 C8.01 8 7.02 8 6 8 C4.97971135 6.68212715 3.98028616 5.34789347 3 4 C2.01 3.67 1.02 3.34 0 3 C0 2.01 0 1.02 0 0 Z " fill="#D6EBF2" transform="translate(41,17)"/>
<path d="M0 0 C0.66 0 1.32 0 2 0 C2 0.99 2 1.98 2 3 C3.32 3 4.64 3 6 3 C6 2.01 6 1.02 6 0 C6.66 0 7.32 0 8 0 C8 2.97 8 5.94 8 9 C7.34 9 6.68 9 6 9 C6 7.68 6 6.36 6 5 C4.68 5 3.36 5 2 5 C2 6.32 2 7.64 2 9 C1.34 9 0.68 9 0 9 C0 6.03 0 3.06 0 0 Z " fill="#38A4C3" transform="translate(51,26)"/>
<path d="M0 0 C0.33 0.66 0.66 1.32 1 2 C1.66 2.33 2.32 2.66 3 3 C1.68 5.97 0.36 8.94 -1 12 C-1.33 11.34 -1.66 10.68 -2 10 C-3.32 10 -4.64 10 -6 10 C-6 9.34 -6 8.68 -6 8 C-4.68 8 -3.36 8 -2 8 C-2 7.34 -2 6.68 -2 6 C-3.32 6 -4.64 6 -6 6 C-6 5.34 -6 4.68 -6 4 C-4.68 4 -3.36 4 -2 4 C-2 3.34 -2 2.68 -2 2 C-1.34 2 -0.68 2 0 2 C0 1.34 0 0.68 0 0 Z " fill="#F2F8FA" transform="translate(27,23)"/>
<path d="M0 0 C1.98 0 3.96 0 6 0 C6.33 1.32 6.66 2.64 7 4 C6.67 3.34 6.34 2.68 6 2 C4.68 2 3.36 2 2 2 C2 2.99 2 3.98 2 5 C3.32 5.33 4.64 5.66 6 6 C6.33 7.32 6.66 8.64 7 10 C6.01 9.34 5.02 8.68 4 8 C4 7.34 4 6.68 4 6 C3.34 6 2.68 6 2 6 C2 7.32 2 8.64 2 10 C1.34 10 0.68 10 0 10 C0 6.7 0 3.4 0 0 Z " fill="#259BBE" transform="translate(39,15)"/>
<path d="M0 0 C-0.33 0.66 -0.66 1.32 -1 2 C-2.32 1.67 -3.64 1.34 -5 1 C-5 1.66 -5 2.32 -5 3 C-3.35 3.33 -1.7 3.66 0 4 C0 5.32 0 6.64 0 8 C-1.98 8.33 -3.96 8.66 -6 9 C-6.33 8.34 -6.66 7.68 -7 7 C-5.35 7 -3.7 7 -2 7 C-2 6.34 -2 5.68 -2 5 C-3.65 4.67 -5.3 4.34 -7 4 C-7 2.68 -7 1.36 -7 0 C-4.3333581 -1.33332095 -2.83319697 -0.67102033 0 0 Z " fill="#279EC2" transform="translate(16,16)"/>
<path d="M0 0 C0.804375 0.495 0.804375 0.495 1.625 1 C4.5391061 2.22699204 6.86867708 2.14233286 10 2 C10 3.32 10 4.64 10 6 C6.7 6 3.4 6 0 6 C0 4.02 0 2.04 0 0 Z " fill="#19BBB9" transform="translate(69,29)"/>
<path d="M0 0 C1.98 0 3.96 0 6 0 C4.68 0.33 3.36 0.66 2 1 C2 1.66 2 2.32 2 3 C3.32 3 4.64 3 6 3 C6 3.66 6 4.32 6 5 C4.68 5 3.36 5 2 5 C2 5.66 2 6.32 2 7 C3.32 7 4.64 7 6 7 C6 7.66 6 8.32 6 9 C4.02 9 2.04 9 0 9 C0 6.03 0 3.06 0 0 Z " fill="#2A9CBE" transform="translate(19,26)"/>
<path d="M0 0 C2.375 -0.1875 2.375 -0.1875 5 0 C7.78637633 4.1795645 6.79562512 6.14668677 6 11 C0 3.28571429 0 3.28571429 0 0 Z " fill="#F3F8FA" transform="translate(30,23)"/>
<path d="M0 0 C3.3 0 6.6 0 10 0 C10 1.32 10 2.64 10 4 C6.66666667 4 3.33333333 4 0 4 C0 2.68 0 1.36 0 0 Z " fill="#81BCD6" transform="translate(8,10)"/>
<path d="M0 0 C2.64 0 5.28 0 8 0 C8 0.66 8 1.32 8 2 C7.01 2 6.02 2 5 2 C5 4.64 5 7.28 5 10 C4.34 10 3.68 10 3 10 C3 7.36 3 4.72 3 2 C2.01 2 1.02 2 0 2 C0 1.34 0 0.68 0 0 Z " fill="#319FC0" transform="translate(47,15)"/>
<path d="M0 0 C0.99 0.495 0.99 0.495 2 1 C2 1.66 2 2.32 2 3 C3.32 2.01 4.64 1.02 6 0 C6 1.98 6 3.96 6 6 C4.02 6 2.04 6 0 6 C0 4.02 0 2.04 0 0 Z " fill="#C8E5ED" transform="translate(19,20)"/>
<path d="M0 0 C0.66 0.33 1.32 0.66 2 1 C1 4 1 4 -1 7 C-0.01 7.33 0.98 7.66 2 8 C0.68 8 -0.64 8 -2 8 C-2 8.66 -2 9.32 -2 10 C-2.66 10 -3.32 10 -4 10 C-3.43454163 6.04179141 -2.19097652 3.3340947 0 0 Z " fill="#2599BA" transform="translate(30,25)"/>
<path d="M0 0 C0.66 0 1.32 0 2 0 C2 3.3 2 6.6 2 10 C1.34 10 0.68 10 0 10 C0 8.35 0 6.7 0 5 C-0.66 5 -1.32 5 -2 5 C-1.34 3.35 -0.68 1.7 0 0 Z " fill="#309BC0" transform="translate(25,15)"/>
<path d="M0 0 C0.66 0 1.32 0 2 0 C2 2.97 2 5.94 2 9 C1.34 9 0.68 9 0 9 C0 7.68 0 6.36 0 5 C-1.32 4.67 -2.64 4.34 -4 4 C-2.68 4 -1.36 4 0 4 C0 2.68 0 1.36 0 0 Z " fill="#1F97B9" transform="translate(15,26)"/>
<path d="M0 0 C0.66 0 1.32 0 2 0 C2 2.97 2 5.94 2 9 C1.34 9 0.68 9 0 9 C0 7.68 0 6.36 0 5 C-1.32 4.67 -2.64 4.34 -4 4 C-2.68 4 -1.36 4 0 4 C0 2.68 0 1.36 0 0 Z " fill="#1D95B6" transform="translate(57,26)"/>
<path d="M0 0 C0.33 0 0.66 0 1 0 C1 2.64 1 5.28 1 8 C0.01 7.67 -0.98 7.34 -2 7 C-2.33 7.66 -2.66 8.32 -3 9 C-3 7.68 -3 6.36 -3 5 C-2.34 5 -1.68 5 -1 5 C-0.67 3.35 -0.34 1.7 0 0 Z " fill="#B5E7E6" transform="translate(70,18)"/>
<path d="M0 0 C1.65 0 3.3 0 5 0 C5 1.32 5 2.64 5 4 C3.35 4 1.7 4 0 4 C0 2.68 0 1.36 0 0 Z " fill="#72AFCB" transform="translate(20,10)"/>
</svg>
